<?xml version="1.0" encoding="UTF-8"?>
<!DOCTYPE svg PUBLIC "-//W3C//DTD SVG 1.1//EN" "http://www.w3.org/Graphics/SVG/1.1/DTD/svg11.dtd">
<!-- Creator: CorelDRAW 2019 (64-Bit) -->
<svg xmlns="http://www.w3.org/2000/svg" xml:space="preserve" width="53.8321mm" height="57.2623mm" version="1.1" style="shape-rendering:geometricPrecision; text-rendering:geometricPrecision; image-rendering:optimizeQuality; fill-rule:evenodd; clip-rule:evenodd"
viewBox="0 0 13016.17 13845.57"
 xmlns:xlink="http://www.w3.org/1999/xlink">
 <defs>
  <style type="text/css">
   <![CDATA[
    .str0 {stroke:#373435;stroke-width:725.38;stroke-linecap:round;stroke-linejoin:round;stroke-miterlimit:1}
    .fil0 {fill:none}
   ]]>
  </style>
 </defs>
 <g id="Слой_x0020_1">
  <metadata id="CorelCorpID_0Corel-Layer"/>
  <path class="fil0 str0" d="M11728.08 4994.41l-4606.11 -4631.72c-750.64,199.72 -1634.8,1421.06 -1407.42,1637.73l4770.24 4545.67c117.97,-262.95 165.77,-559.22 487.14,-907.78 313.85,-340.42 493.45,-437.79 775.35,-631.1 234.22,212.9 544.06,472.61 762.73,704.34 337.59,357.73 -6.79,928.92 -155.18,1123.17 -263.96,345.55 -635.43,606.63 -946.45,911.75 -1901.67,1865.72 -3167.45,2895.85 -5050.02,4780.98 -855.58,856.72 -1203.06,1401.74 -2020.61,465.33 -712.46,-816.1 -1690.2,-1699.53 -3119.72,-2974.19 -656.8,-585.67 -1213.05,-978.22 -570.92,-1766.05 2060.24,-2170.81 3609.96,-3499.92 5703.92,-5655.3l5222.51 4988.9 -1088.77 -1040.04"/>
 </g>
</svg>
