<?xml version="1.0" encoding="UTF-8"?>
<!DOCTYPE svg PUBLIC "-//W3C//DTD SVG 1.1//EN" "http://www.w3.org/Graphics/SVG/1.1/DTD/svg11.dtd">
<!-- Creator: CorelDRAW 2019 (64-Bit) -->
<svg xmlns="http://www.w3.org/2000/svg" xml:space="preserve" width="145.953mm" height="74.1619mm" version="1.1" style="shape-rendering:geometricPrecision; text-rendering:geometricPrecision; image-rendering:optimizeQuality; fill-rule:evenodd; clip-rule:evenodd"
viewBox="0 0 13950.82 7088.7"
 xmlns:xlink="http://www.w3.org/1999/xlink">
 <defs>
  <style type="text/css">
   <![CDATA[
    .fil0 {fill:black}
   ]]>
  </style>
 </defs>
 <g id="Слой_x0020_1">
  <metadata id="CorelCorpID_0Corel-Layer"/>
  <path class="fil0" d="M6959.22 5405.54c-232.32,346.94 -829.34,1093.81 -906.32,1424.21 109.23,-25.44 493.21,-220.33 847.98,-317.29 743.31,-203.14 1910.69,-177.77 2593,113.16 151.9,64.77 255.41,167.58 443.24,171.76 -55.12,-236.6 -477.59,-869.64 -657.43,-1090.47l-281.26 -333.74c138.02,32.16 284.52,163.59 420.58,259.16 625.73,439.47 609.87,386.35 662.1,762.11 29.94,215.33 17.85,465.02 17.85,694.27l1586.06 0c0,-1185.97 82.36,-930.06 -572.29,-1725.88 -112.23,-136.43 -78.57,-163.42 -362.76,-219.87 -424.03,-84.23 -782.34,-141.69 -1048.62,-407.97 -134.73,-134.73 -199.03,-253.71 -251.42,-460.68 -103.68,-409.48 -77.72,-849.98 109.14,-1221.29 275.97,-548.36 475.99,-811.39 992.67,-1208.39 519.45,-399.11 1260.67,-732 2007.23,-905.94 -70.21,-95.82 -111.8,-67.31 -454.86,-95.4 -178.91,-14.65 -398.39,1.86 -582.22,-0.41 -197.84,-2.44 -312.71,-35.4 -548.98,-33.66 -236.23,1.74 -351.24,-31.27 -548.98,-33.66 -767.16,-9.28 -1468.64,-95.82 -2234.71,-95.82l0 -32.36c1930.42,0 3806.64,-32.36 5761.59,-32.36l0 -615.01 -8248.59 37.75c-108.16,39.57 -69.16,97.05 -70.96,252.72 -1.87,162.92 -26.9,147.66 -32.96,293.3 -8.35,200.47 58.4,350.94 29.1,609.12 -22.33,196.81 -27.65,377.46 -27.65,619.75l-32.36 0c0,-193.68 -67.62,-542.68 -101.28,-740.31 -35.64,-209.3 -107.2,-498.66 -125.3,-716.27l-679.74 0 1.42 1166.69c-0.7,111.8 -5.14,226.08 -66.16,322.25 -30.75,-369.45 -194.21,-1061.68 -194.21,-1327.11 -191.08,0 -292.25,-33.74 -517.68,-32.58l-3334.38 0c-236.92,-1.22 -337.02,32.58 -550.05,32.58 47.78,178.94 833.8,755.54 980.22,864.79 680.13,507.5 1461.71,1149.34 2255.99,1466.39 205.19,81.9 493.42,142.49 758.09,180.6 998.9,143.83 1829.85,-68.38 2167.88,615.82 348.39,705.2 -81.64,1195.31 -695.48,1400.4 -489.07,163.42 -458.62,27.33 -874.61,549.61 -71.21,89.41 -125.08,160.8 -200.14,253.01 -303.63,373 -184.03,265.06 -184.03,1240.18l1683.16 0c0,-241.82 32.82,-380.28 31.19,-648.55 -2.57,-422.46 163.3,-446.02 597.48,-762.01 98.98,-72.03 337.18,-245.29 439.5,-272.61z"/>
 </g>
</svg>
